<?xml version="1.0"?><svg viewBox="0 0 1000 1000" xmlns="http://www.w3.org/2000/svg"><path d="m844.16 213.51c-28.48-72-105.18-110.8-176-129.16q-5-1.3-10.06-2.47c-55.79-13-115.45-15.63-170.6 1.84-31.78 10.06-61.64 28.12-82 54.51-9.92 12.87-17.16 32-6.76 44.49 9 10.77 25.69 10 37.95 16.75 10.53 5.82 17.61 17.21 29 21.18 8.22 2.88 17.55 1.38 25.66 4.57 11.22 4.42 17.65 16.78 28.65 21.84 11.2 5.16 24.41 1.59 36.54 3.8 14.26 2.6 26.26 13 40.61 15.09 11.75 1.69 24.08-2.43 35.43 1.07 11 3.37 19.67 13.51 31.12 13.82 8 .21 15.58-4.52 23.47-3.49 9 1.17 16 9.59 25.09 10.11s16.94-7.13 26.07-8c10-.93 18.9 6.33 28.85 7.3 9.46.92 18.48-3.92 27.89-5.24 10.24-1.44 20.94 1.3 30.88-1.56 12.47-3.59 21.2-15.7 23.61-28.45s-.62-25.93-5.4-38z" fill="#18c4ff"/><path d="m846.37 212.9c-12.15-30.53-33.36-56.12-59.25-76.09s-55.82-34.45-86.67-45.12a406.14 406.14 0 0 0 -114.12-22.27c-40.47-1.8-82.37 3.36-119.69 19.73a169.82 169.82 0 0 0 -46.08 29.47c-12.64 11.47-25.92 26.2-28.68 43.68-1.26 8 .11 16 5.47 22.28 5.17 6 13 8.67 20.39 10.74 7.84 2.19 15.65 4.08 22.29 9 6.8 5.06 12.27 11.81 19.69 16a34.35 34.35 0 0 0 12.88 4.09c5 .66 10.18.66 15.12 2 8.42 2.2 14.07 9 20.19 14.7a44.8 44.8 0 0 0 9.75 7.31 35.82 35.82 0 0 0 13.31 3.6c9.74.91 19.61-.75 29.15 2 8.75 2.53 16.58 7.42 25 10.83a49.3 49.3 0 0 0 13.21 3.49c5.14.57 10.31.13 15.44-.21s10.12-.69 15.06.27a38.77 38.77 0 0 1 12.37 5.2c7.2 4.29 14.49 9.58 23.25 9.48 4.88-.05 9.53-1.7 14.23-2.8s9-1.12 13.47.86c7.47 3.34 14.07 9.38 22.8 8.49s15.93-7.83 24.81-8c9.36-.16 17.49 6.21 26.68 7.3 10 1.19 19.21-3.83 28.94-5.2 10.45-1.47 21.19 1.4 31.47-1.7 16.85-5.06 25.73-23 25.83-39.57.06-10.19-2.61-20.2-6.3-29.63-1.06-2.71-5.49-1.53-4.41 1.22 6.73 17.2 10.22 38.52-2.49 54a29.4 29.4 0 0 1 -21.76 10.95c-5.33.28-10.66-.23-16-.18a56.77 56.77 0 0 0 -14.31 2c-4.74 1.27-9.44 2.94-14.33 3.54a29.61 29.61 0 0 1 -13.87-1.91c-8.28-3-16.26-7-25.24-4.5-7.72 2.13-15.28 8.72-23.69 6.92-7.92-1.69-13.85-8.26-21.91-9.66-9.31-1.63-17.87 4.61-27.08 3.09-8.19-1.36-14.77-7.3-22-11-8.82-4.48-18-4.29-27.6-3.63-4.87.33-9.86.68-14.71-.1a53.71 53.71 0 0 1 -13.14-4.2c-7.89-3.53-15.48-8-23.93-10.16-9.27-2.37-18.79-1-28.21-1.72a30.07 30.07 0 0 1 -13.16-3.83 51.94 51.94 0 0 1 -9.32-7.61c-5.7-5.52-11.38-11.37-19.18-13.76-9-2.76-19-.93-27.46-5.58-7.28-4-12.7-10.54-19.2-15.56s-13.66-7.36-21.35-9.46c-7.16-2-15-3.81-20.43-9.28-12.7-12.87-1.92-33.47 7.3-44.9a149.23 149.23 0 0 1 40-34.2c33.41-19.9 73-28.19 111.55-29.53 39.81-1.37 79.8 4.71 118 15.7 30.42 8.74 60.11 20.83 86.95 37.72 26.6 16.8 50.32 38.54 66.24 65.8a159.35 159.35 0 0 1 10.36 21.12c1 2.71 5.46 1.53 4.37-1.22z" fill="#18c4ff"/><path d="m231.1 687.44c-4.63-2.38-8.77-5.76-12.79-9a79.15 79.15 0 0 1 -10.64-10.86 170.43 170.43 0 0 1 -18.12-27.2c-5.56-10.11-10.12-20.83-12.36-32.19a96.38 96.38 0 0 1 -.49-32.85c3.36-22.22 13-43.12 24.94-62a280.12 280.12 0 0 1 43.93-53c7.45-7.05 15.28-14.08 20.53-23a49 49 0 0 0 5.44-14.34c1.1-4.95 1.8-10 3.57-14.82a25.69 25.69 0 0 1 3.55-6.53c.81-1.08-1-2.53-1.89-1.46-6.61 8.3-6.31 19.3-9.77 28.9-3.62 10.08-11.41 17.92-19 25.14-8.35 7.92-16.57 15.89-24.12 24.59a281.28 281.28 0 0 0 -21.35 28c-12.57 18.83-23 39.66-27.5 62a104.7 104.7 0 0 0 -1.59 33.18 103 103 0 0 0 10.08 32.63 187.6 187.6 0 0 0 17.66 29.15 109.7 109.7 0 0 0 10.07 12 77.57 77.57 0 0 0 11.88 9.89 53 53 0 0 0 7 3.55c1.15.55 2.16-1.14 1-1.73z"/><path d="m287.89 398.63a21.85 21.85 0 0 0 -5 8.47c-.35 1.13 1.43 1.62 1.77.49a21.51 21.51 0 0 1 4.3-7.86c.65-.75-.4-1.84-1.09-1.1z"/><path d="m300.39 396.57a22 22 0 0 0 -8 9.33 1 1 0 0 0 .34 1.32 1 1 0 0 0 1.32-.35 22 22 0 0 1 7.09-9 .78.78 0 0 0 -.78-1.34z"/><path d="m320.11 397.13a23.59 23.59 0 0 0 -11.76 10.25c-2.59 4.5-4.28 10.31-3.22 15.5a1.24 1.24 0 0 0 2.42-.33 33.35 33.35 0 0 1 .44-7.06 24.05 24.05 0 0 1 2.55-6.83 25.86 25.86 0 0 1 10.18-10.09c.76-.42.24-1.76-.61-1.44z"/><path d="m319.89 418.73c-.63 13.16-4.44 26.48-13.82 36.09-4.2 4.31-9 7.95-13.46 12a74.68 74.68 0 0 0 -11.46 13.13c-13.81 20.11-17.87 44.76-23.43 68-1.66 6.92-3.46 13.8-5.74 20.55-1.14 3.36-2.38 6.69-3.79 9.95s-3.19 6.64-4.79 10a1.35 1.35 0 0 0 2.33 1.36c3.53-5.34 6-11.56 8.12-17.57s3.93-12.25 5.5-18.49c3.09-12.28 5.43-24.74 8.85-36.93 3.2-11.39 7.31-22.65 13.63-32.72a71.94 71.94 0 0 1 10.91-13.56c4.43-4.28 9.33-8 13.73-12.32a46.82 46.82 0 0 0 11.32-17.22 60 60 0 0 0 3.81-22.25.86.86 0 0 0 -1.71 0z"/><path d="m726.82 440.08c-5.2 11.23-3.21 23.77-3.12 35.72.1 12.29-2.83 24.22-7.43 35.57-9.37 23.16-24.62 43.41-33.37 66.87-4.83 12.93-7.84 27.14-5.52 40.93.22 1.31 2.49 1 2.35-.32a76.55 76.55 0 0 1 .11-18.71 95.56 95.56 0 0 1 4.35-17.8c4.09-12 10-23.21 16.18-34.23 11.55-20.66 24.37-42.37 25.48-66.62.62-13.39-3.24-27.81 2.45-40.54.45-1-1-1.88-1.48-.87z"/><path d="m741 424.88a56.6 56.6 0 0 1 -.3 15.38c-.19 1.19 1.65 1.69 1.82.5a58.65 58.65 0 0 0 .15-15.88c-.14-1.05-1.8-1.08-1.67 0z"/><path d="m753.7 424.89a78.62 78.62 0 0 1 -1.46 19.66c-.23 1.16 1.53 1.67 1.79.49a71.36 71.36 0 0 0 1.32-20.15c-.07-1.05-1.71-1.06-1.65 0z"/><path d="m767.22 430.58a43.52 43.52 0 0 1 -3 18.92c-.45 1.14 1.41 1.65 1.84.51a44.24 44.24 0 0 0 2.77-19.43c-.08-1.05-1.71-1.07-1.64 0z"/><path d="m779.89 437a124.77 124.77 0 0 1 -7.19 30.65c-3.61 9.67-9.24 18.69-11.33 28.89s-1.39 21-.91 31.46c.48 10.63 1.15 21.25 1.35 31.89.38 20.22-1 40.85-8.47 59.84a109.54 109.54 0 0 1 -70.56 64l-6 1.72c-2 .58-1.12 3.36.84 3 8.24-1.35 16.32-4.64 23.76-8.35a115.16 115.16 0 0 0 51.91-52.67c8.56-18 11.25-37.94 11.45-57.73.1-10.79-.47-21.57-1-32.34s-1.57-21.46-.9-32.13a55.44 55.44 0 0 1 3.2-15.81c1.8-4.94 4.18-9.63 6.25-14.46a118.92 118.92 0 0 0 8.49-30.4q.53-3.78.82-7.57c.09-1.1-1.58-1.07-1.69 0z"/><path d="m329.18 928.08a149.7 149.7 0 0 1 10.21-60.27c1.11-2.83 2.36-5.71 4.58-7.8 4.33-4.1 11-4.08 16.93-4 23.13.09 46.1-3.47 69.15-5.38 30.11-2.48 60.37-2.16 90.58-1.83 3.44 0 7.13.16 9.93 2.17s3.9 6.68 1.22 8.85c4.45-.95 7.58 4.15 9.22 8.39l23.43 60.46"/><path d="m330.07 928.08a151.54 151.54 0 0 1 7.37-51.16 85.59 85.59 0 0 1 4.56-11.92 12.48 12.48 0 0 1 8-6.84c3.49-1 7.17-.94 10.76-.92 4.49 0 9-.09 13.46-.3 18.2-.85 36.27-3.34 54.41-4.87s36.58-2 54.89-2.11c9.17 0 18.33.06 27.5.17 4.34.05 8.75-.11 13.08.25 3.18.27 6.77 1.37 7.6 4.84a3.31 3.31 0 0 1 -1 3.45c-1.27 1.1.12 2.83 1.5 2.58 3.5-.63 5.81 3.82 6.95 6.42 2.11 4.77 3.81 9.75 5.7 14.61q5.77 14.88 11.62 29.74 3.36 8.47 6.66 17c.62 1.61 3.25.92 2.62-.72-4.12-10.7-8.14-21.44-12.27-32.13l-6.21-16-3.15-8.14c-.88-2.27-1.67-4.59-2.75-6.77-1.92-3.88-5.22-7.77-10-6.89l1.51 2.59c2.52-2.22 2.4-6 .79-8.73-1.92-3.25-5.67-4.4-9.22-4.74-4.53-.43-9.18-.2-13.73-.23q-7.19-.06-14.37-.08c-19.31 0-38.63.2-57.91 1.49s-38.22 4-57.39 5.34c-4.75.34-9.49.58-14.24.68-4.16.1-8.35-.12-12.5.24-3.64.32-7.32 1.15-10.26 3.43-3.17 2.47-4.73 6.22-6.13 9.86a147.38 147.38 0 0 0 -9.8 53.19c0 2.25.07 4.51.18 6.76.05 1.13 1.8 1.14 1.77 0z"/><g fill="#18c4ff"><path d="m440 676a156.65 156.65 0 0 0 -58.54 16.74c-10 5.13-19.65 11.55-26.31 20.6-9.86 13.38-2.89 10.28-3.2 26.89-.57 30.86-5.5 84.73-21.66 111-1.56 2.55-3.35 5.1-3.75 8.07-1.12 8.32 8.48 13.65 16.54 16 62.64 18.25 130 7.16 193-9.72 6-1.59 12.82-4.09 14.56-10 2.29-7.81-5.85-14.34-9.44-21.64-4.85-9.85-1.19-21.54 2-32.06a296.76 296.76 0 0 0 10.69-52.79c1.68-15.4 1.85-32.09-6.67-45-8.64-13.11-24.33-19.52-39.38-24a308 308 0 0 0 -45.35-9.87"/><path d="m440 675.08a158.62 158.62 0 0 0 -40.1 8.5c-12.14 4.29-24.3 9.86-34.53 17.77a60.57 60.57 0 0 0 -12.79 13.47c-1.93 2.78-4.07 6-4 9.54.08 2.92 1.26 5.77 1.69 8.64.7 4.66.37 9.46.2 14.15-.77 21.22-2.85 42.56-7.23 63.37a163.43 163.43 0 0 1 -8.68 29.42 92.81 92.81 0 0 1 -6.52 12.51c-1.53 2.49-2.87 5.17-2.88 8.16a11.28 11.28 0 0 0 2.14 6.53c2.92 4.1 7.62 6.62 12.23 8.37 6.08 2.3 12.63 3.68 19 5a253.52 253.52 0 0 0 41.63 5.2c28.16 1.23 56.38-1.75 84.05-6.87 13.88-2.58 27.66-5.7 41.34-9.18 5.92-1.51 12.15-2.7 17.75-5.19 4.66-2.07 8.7-5.72 9-11.11s-3.51-10.19-6.47-14.4a33.82 33.82 0 0 1 -4.25-7.34 24.86 24.86 0 0 1 -1.44-9.6c.2-6.64 2.24-13.08 4.13-19.39q3.09-10.36 5.46-20.92a253.37 253.37 0 0 0 6.15-41.71c.64-12.12-.45-25-6.94-35.54-6.13-10-16.3-16.39-26.9-20.82-12.22-5.11-25.34-8.37-38.26-11.13q-10.41-2.24-20.95-3.74c-1.83-.25-2.62 2.55-.78 2.81a313.7 313.7 0 0 1 42.13 8.82c11 3.14 22.29 6.85 31.63 13.73a41.56 41.56 0 0 1 11.33 12.33 46.55 46.55 0 0 1 5.62 16.9c1.84 12.64.07 25.77-1.86 38.29a306.63 306.63 0 0 1 -9.36 41.15c-1.83 6.13-3.68 12.38-4 18.81a27.56 27.56 0 0 0 4.85 17c2.78 4.15 7.17 8.7 7.31 14s-4.53 8.54-9 10.26a81.33 81.33 0 0 1 -8.12 2.4q-5 1.31-10 2.57-10 2.52-20.14 4.76c-26.91 5.92-54.3 10.13-81.88 10.81a281.36 281.36 0 0 1 -40.94-1.87q-10.28-1.26-20.43-3.42a136.27 136.27 0 0 1 -18.66-4.92c-4.37-1.61-9.28-4.13-11.67-8.33-3-5.2.8-9.9 3.37-14.34 4.63-8 7.73-16.91 10.21-25.8 5.69-20.39 8.32-41.68 9.79-62.76q.51-7.17.77-14.33a85.1 85.1 0 0 0 -.13-14.1 46.84 46.84 0 0 0 -1-5.23 22.77 22.77 0 0 1 -.75-3.45c-.27-3.17 1.76-6.08 3.48-8.6 7-10.3 17.28-17.27 28.25-22.88a155.9 155.9 0 0 1 57.15-16.44c1.19-.1 1.2-2 0-1.86z"/><path d="m372.23 661.14c-48.1-9.36-86.83-45.14-116.55-84.14-3.2-4.2-6.46-8.57-11-11.23-8.73-5.11-20.48-2.47-28.08 4.2s-11.65 16.55-13.85 26.42c-3.87 17.39-2.18 37.1 9.27 50.75 2.81 3.34 6.2 6.36 7.82 10.41 2.54 6.34.14 13.43-.52 20.23a40 40 0 0 0 21 38.42c3.09 1.58 6.52 2.86 8.66 5.59s2.57 6.38 3.31 9.77c2.93 13.43 12 25.13 23.55 32.57s31.06-2.68 84.76 5.89c11.6 1.85 0 0 11.69 1.19 8.4.86-5.35 6.66 3.07 5.93s17.37-6.1 18.41-14.49"/><path d="m372.49 660.21c-20.72-4.23-39.88-13.47-57.11-25.59-17.55-12.35-33-27.58-46.77-44q-5.19-6.17-10.09-12.55c-3.35-4.36-6.53-9-11-12.32-8.33-6.23-19.88-5.09-28.34.28-9.19 5.83-14.36 16.19-17.12 26.39a75.21 75.21 0 0 0 -1.89 31.58 54.22 54.22 0 0 0 4.65 14.9 56.07 56.07 0 0 0 9.09 12.75 22.12 22.12 0 0 1 4.57 6.76 19.42 19.42 0 0 1 .76 8.67c-.54 5.62-2 11-1.58 16.74a41.27 41.27 0 0 0 23.91 34.8c2.31 1.13 4.84 2.32 6.36 4.48s2 5.09 2.55 7.73a52.9 52.9 0 0 0 14.52 26.74 49.73 49.73 0 0 0 10.73 8.5 18.9 18.9 0 0 0 5.17 1.93c4.32.95 8.83.84 13.23.69 6.55-.21 13.09-.58 19.65-.63a263 263 0 0 1 28.2 1.27c6.15.6 12.28 1.41 18.38 2.39 1.83.29 3.68.69 5.52.85a1.79 1.79 0 0 0 2.09-1.2c-.23.77-.65.86-1.07 1.09-.2.11-.52 0-.15 0s1.05 0 1.57.07c1.07.08 2.15.18 3.22.29a12.32 12.32 0 0 1 1.36.17c.16 0 .94.3.68.19.33.14.09.09 0-.1a1.55 1.55 0 0 1 -.1-.58c.05.3.08-.1-.06.12s-.44.63-.19.31c-.58.73-1.29 1.36-1.82 2.13a2.31 2.31 0 0 0 0 3c.95.94 2.54.82 3.76.72a25.34 25.34 0 0 0 13.23-4.78 16.44 16.44 0 0 0 6.77-10.92 1.55 1.55 0 0 0 -1-1.84 1.5 1.5 0 0 0 -1.83 1c-.62 4.47-3.77 8-7.57 10.21a23.44 23.44 0 0 1 -6.25 2.48 21.06 21.06 0 0 1 -3.16.53c-.36 0-.73.06-1.1.06h-.63c-.33 0 0 0 .16.17.53.57.18 1 .3 1.27.06.13 0 0 .14-.19s-.25.3 0 0a3 3 0 0 1 .23-.27 14 14 0 0 0 1.77-2.15 2.9 2.9 0 0 0 .17-3c-.8-1.29-2.48-1.57-3.85-1.73a44.82 44.82 0 0 0 -5.54-.46c-.93 0-1.92.24-2.2 1.28-.15.56 1.72-1.4 1.13-1.11-.07 0 .62-.15.26-.06s0 0 0 0l-.84-.13c-2.58-.39-5.14-.82-7.72-1.21a286.84 286.84 0 0 0 -32.19-3.05c-7.6-.27-15.2-.16-22.8.14-5.2.21-10.42.59-15.62.38-1 0-2-.12-3.05-.23h-.28c-.48-.06.34.05-.13 0l-.57-.17c-.49-.08-1-.18-1.47-.29a19.41 19.41 0 0 1 -2.36-.71c-.1 0-.7-.29-.31-.12l-.57-.26c-.38-.18-.75-.37-1.11-.58a52.28 52.28 0 0 1 -19.54-21.04c-2.33-4.6-3.47-9.36-4.6-14.35a16.22 16.22 0 0 0 -3.22-7.2 19.07 19.07 0 0 0 -6.3-4.33 41.58 41.58 0 0 1 -11.75-8.1 39.49 39.49 0 0 1 -8-11.9 37.35 37.35 0 0 1 -3.1-13.89c-.14-5.55 1.43-10.91 1.75-16.43a20.17 20.17 0 0 0 -1.14-8.58 24.08 24.08 0 0 0 -4.4-6.79c-1.72-2-3.57-3.86-5.14-6a44 44 0 0 1 -3.93-6.39c-4.63-9.17-5.95-19.76-5.24-29.92.72-10.34 3.34-21.25 9.08-30 5.45-8.3 14.68-14.26 24.89-13.25 5.22.52 9.48 3.34 13 7.14s6.59 8.31 9.89 12.43c13.12 16.38 27.66 31.77 44.15 44.81 16.12 12.76 34.2 23.21 53.92 29.28a133 133 0 0 0 14.5 3.54c1.21.23 1.73-1.61.51-1.86z"/><path d="m461.62 670.74c66.9 4.08 132.29-25 185.37-65.93 6.34-4.89 12.65-10 20-13.21s16-4.27 23.3-.89c4.71 2.2 8.44 6.07 11.65 10.16 13 16.45 19.05 40.2 9.09 58.62-3.53 6.55-9 12.38-10.09 19.74s2.46 14.71 3.58 22.16c2.38 16-8.29 32.84-23.73 37.54-11.41 3.47-24.1.81-35.32 4.84-9.11 3.27-16.18 10.58-24.82 15-10 5.08-33.41 3.39-44.49 1.42-23.42-4.16-50.36 9.9-56.79 9.76-13.37-.3 27.1-1 13.87 1-4.61.69-9.29-.17-13.87-1l-46.05-8.55"/><path d="m461.62 671.54a216.56 216.56 0 0 0 62.58-5 281.48 281.48 0 0 0 59.53-20.89 351.89 351.89 0 0 0 54.7-32.73c4.38-3.17 8.67-6.47 13-9.77a90.15 90.15 0 0 1 13.69-9.1 33.72 33.72 0 0 1 15.72-4 22 22 0 0 1 14.25 5.5 52.17 52.17 0 0 1 9.42 11.45 66.26 66.26 0 0 1 6.49 12.91c3.23 8.89 4.61 18.67 2.69 28a41.31 41.31 0 0 1 -5.33 13.3c-2.63 4.28-5.68 8.3-7.55 13-2 5.08-1.75 10.37-.55 15.62 1.16 5.1 3 10.1 3.09 15.39a33.85 33.85 0 0 1 -9.22 23.46 32.53 32.53 0 0 1 -10.48 7.56c-4.75 2.11-10 2.75-15.15 3.07-5.51.34-11.05.36-16.52 1.23a40.15 40.15 0 0 0 -14.61 5.46c-7.62 4.61-14.37 11.33-23.31 13.24-8.14 1.74-16.79 1.47-25 .86s-16.3-2.6-24.57-2.28c-9.37.37-18.58 2.58-27.5 5.33-3.57 1.1-7.1 2.3-10.65 3.44-1.27.4-2.55.8-3.84 1.14-.52.14-1 .27-1.56.37l-.67.13c.15 0-.15 0-.42 0a20.94 20.94 0 0 1 -2.24 0h-.62a1.36 1.36 0 0 0 -.2 0 1.44 1.44 0 0 1 1 .45l.49 1.16-.49 1.16a1.28 1.28 0 0 1 -.93.44h.42l1.35-.06c1.37 0 2.74 0 4.11-.06 3.25 0 6.5 0 9.73.15.59 0 1.17.07 1.76.12.13 0 .81.1.5 0s.24.08.35.07c.32 0 .25.26-.06-.05a2.08 2.08 0 0 1 -.48-2.09s.68-.77.4-.52c.29-.26.31-.1-.07 0l-.75.17a31.89 31.89 0 0 1 -11.44-.29c-5-.86-10.07-1.87-15.1-2.8-11.27-2.11-22.57-4.07-33.84-6.16-2-.36-2.78 2.63-.82 3 15.26 2.84 30.5 5.8 45.77 8.63 5.51 1 11.3 2.08 16.86.71a2.37 2.37 0 0 0 2-1.5c.34-1.23-.62-2-1.67-2.29a25.72 25.72 0 0 0 -5.55-.42c-2.55-.07-5.1-.08-7.65-.06-1.81 0-3.62 0-5.42.13-.93.06-1.91.2-2.21 1.28-.42 1.54 1 2.07 2.14 2.15a19.06 19.06 0 0 0 6.55-.69c4.06-1.12 8-2.58 12-3.86 11-3.51 22.54-6.45 34.19-5.86 4.86.25 9.66 1.32 14.5 1.82a137.6 137.6 0 0 0 16.11.78 70 70 0 0 0 15.07-1.53c5.28-1.24 9.77-4.15 14.18-7.22 5.17-3.59 10.29-7.59 16.29-9.7 6.6-2.32 13.66-2.32 20.56-2.68 6.55-.34 13.15-1 19.14-3.91a35.25 35.25 0 0 0 12.4-10 37.86 37.86 0 0 0 7.22-14.71 36 36 0 0 0 -.23-16.92c-1.62-6.73-4.28-13.56-2.06-20.47 1.91-6 6.25-10.81 9.19-16.27 5.67-10.53 6.27-22.92 3.48-34.4a66.69 66.69 0 0 0 -6.78-17 60.33 60.33 0 0 0 -11-14.51 25.35 25.35 0 0 0 -17.61-7.12c-6.75 0-13.24 2.34-19 5.68-6 3.43-11.28 7.85-16.73 12s-10.77 8-16.31 11.81a331.9 331.9 0 0 1 -70.58 37.21c-24.64 9.25-50.68 15.1-77 16.06-6.37.23-12.75.17-19.12-.13-1-.05-1 1.52 0 1.6z"/></g><path d="m448.65 425.76a524.92 524.92 0 0 1 23.35-97.89 14.52 14.52 0 0 1 2.41-4.89c2.29-2.65 6.07-3.32 9.54-3.79a558.46 558.46 0 0 1 97.92-4.51c2.33.1 4.75.24 6.8 1.34a15.77 15.77 0 0 1 4.12 3.7l47.8 54.34c1.64 1.86 3.33 3.81 4 6.2.74 2.6.18 5.37-.39 8q-9.94 46.2-22.52 91.8c-.62 2.23-1.3 4.57-3 6.17s-4.16 2.24-6.49 2.73a318.66 318.66 0 0 1 -104.19 4.56 24.11 24.11 0 0 1 -8-2c-3.23-1.64-5.56-4.57-7.78-7.42l-43.44-55.57" fill="#fff"/><path d="m449.43 426a549.15 549.15 0 0 1 11.9-58.2q3.75-14.34 8.3-28.43c.76-2.35 1.54-4.7 2.33-7a46 46 0 0 1 2.53-6.88c2-3.88 6.54-4.43 10.47-4.95a557.07 557.07 0 0 1 60.94-4.73q15.4-.35 30.82.16c2.45.08 4.93.09 7.37.32a9.47 9.47 0 0 1 6.13 2.75c3.54 3.54 6.7 7.54 10 11.3l20.61 23.42 10.22 11.62c3.3 3.76 6.77 7.43 9.92 11.32a9.94 9.94 0 0 1 2.58 6 30.86 30.86 0 0 1 -1.1 7.13q-1.62 7.47-3.3 14.91-3.37 14.88-7 29.71t-7.56 29.83q-2 7.38-4 14.74c-.54 2-1 4.13-2.29 5.75s-3.45 2.28-5.45 2.74a280.85 280.85 0 0 1 -29.69 4.87q-14.88 1.72-29.86 2.05t-29.92-.76q-7.47-.54-14.9-1.43a27.94 27.94 0 0 1 -6.95-1.46 14.64 14.64 0 0 1 -5-3.58c-3.31-3.45-6.09-7.5-9-11.26l-9.48-12.13-19-24.26-9.33-11.94c-1.07-1.38-3 .56-1.92 1.92q19.65 25.14 39.31 50.29c2.85 3.65 5.54 7.8 9.1 10.81s7.93 3.81 12.51 4.35q15.46 1.85 31.06 2.17a316.9 316.9 0 0 0 61.42-4.68c2.53-.44 5.07-.92 7.59-1.43a53.59 53.59 0 0 0 6.88-1.58 9.88 9.88 0 0 0 5-3.55 17.89 17.89 0 0 0 2.3-5.71q4.23-15.18 8.14-30.44c5.25-20.41 10.15-40.92 14.5-61.54a20 20 0 0 0 .57-7 12.75 12.75 0 0 0 -2.76-5.9c-3.13-4-6.74-7.77-10.12-11.6l-21.1-24-10.71-12.18-5.27-6a47.75 47.75 0 0 0 -5-5.42c-3.8-3.18-8.9-2.85-13.57-3q-7.89-.27-15.78-.32a556.88 556.88 0 0 0 -63.2 3.2c-5.16.56-10.31 1.17-15.44 1.88-4 .56-8.12 1.57-10.5 5.07a25.5 25.5 0 0 0 -2.64 6.38q-1.21 3.62-2.37 7.26-2.36 7.4-4.49 14.86a506.67 506.67 0 0 0 -13.32 59.9q-1.12 7.2-2.07 14.42c-.12.9 1.45 1.12 1.59.21z"/><path d="m618.07 486.84c1.67-1.6 2.35-3.94 3-6.17q12.57-45.57 22.53-91.8c.57-2.64 1.13-5.41.39-8-.67-2.39-2.36-4.34-4-6.2l-47.8-54.34a17.9 17.9 0 0 0 -3.6-3.36q-12.19 46.5-24.38 93c-1.11 4.24-2.36 8.7-5.54 11.71-4.62 4.32-11.67 4.32-17.96 4.08a697.79 697.79 0 0 0 -91.66 3.13l-.49.82 43 55c2.23 2.85 4.56 5.79 7.79 7.42a24 24 0 0 0 8 2 318.67 318.67 0 0 0 104.22-4.55c2.34-.5 4.79-1.09 6.5-2.74z"/><g fill="#18c4ff"><path d="m618.37 486.56c.13-.11.26-.21.37-.32 1.67-1.6 2.35-3.94 3-6.17q12.57-45.57 22.52-91.8c.57-2.64 1.13-5.41.39-8-.67-2.39-2.36-4.34-4-6.2l-47.8-54.34a17.9 17.9 0 0 0 -3.6-3.36q-12.18 46.5-24.38 93c-1.11 4.24-2.35 8.7-5.54 11.71-.2.19-.41.36-.62.54q29.82 32.45 59.66 64.94z"/><path d="m620 488.18c2-1.67 3-4.31 3.71-6.76.92-3.16 1.75-6.35 2.61-9.53q2.6-9.63 5.08-19.28 4.9-19.08 9.35-38.27 2.24-9.58 4.34-19.21c1.28-5.87 3.78-12.64.55-18.28-1.5-2.6-3.73-4.8-5.7-7l-6.59-7.5-13.35-15.21-14.84-16.86-7.41-8.43c-2.3-2.61-4.45-5.51-7.36-7.46a2.3 2.3 0 0 0 -3.36 1.36q-11.13 42.4-22.24 84.79c-1 3.76-1.88 7.57-3 11.29-.93 3.07-2.19 6-4.72 8.14a2.32 2.32 0 0 0 0 3.23l46.54 50.66q6.57 7.15 13.15 14.32c2 2.17 5.23-1.07 3.24-3.24l-46.54-50.66-13.16-14.28v3.23c5-4.14 6.2-11.16 7.76-17.1q2.84-10.85 5.68-21.68l11.26-42.91q3.22-12.29 6.44-24.57l-3.36 1.37c2.39 1.61 4.21 4.23 6.1 6.37l6.26 7.12 12.86 14.62 25.55 29c1.66 1.89 3.53 3.91 3.81 6.52.3 2.84-.66 5.79-1.25 8.53q-2 9.39-4.19 18.75-4.26 18.58-9 37.09-2.64 10.38-5.41 20.73-1.4 5.22-2.83 10.45c-.69 2.5-1.14 5.64-3.27 7.38a2.31 2.31 0 0 0 0 3.24 2.36 2.36 0 0 0 3.29.04z"/><path d="m462.74 404.29c2.77-.05 5.55-.09 8.32-.16 1.39 0 2.78-.08 4.16-.12a39.72 39.72 0 0 0 4.09-.19c1.07-.15.7-1.71-.24-1.78a38.7 38.7 0 0 0 -4.17.1l-4 .15-8.16.38a.81.81 0 0 0 0 1.62z"/><path d="m462 410.58c2.77-.05 5.55-.09 8.32-.15 1.39 0 2.77-.09 4.16-.13a37 37 0 0 0 4.08-.19c1.07-.15.71-1.7-.24-1.78a38.59 38.59 0 0 0 -4.16.11c-1.33 0-2.67.08-4 .14l-8.16.42a.81.81 0 0 0 0 1.62z"/><path d="m461.15 416.88c2.78-.05 5.55-.09 8.33-.16l4.16-.12a39.66 39.66 0 0 0 4.08-.19c1.07-.16.71-1.71-.24-1.78a38.52 38.52 0 0 0 -4.16.1c-1.33 0-2.67.08-4 .14l-8.17.39a.81.81 0 0 0 0 1.62z"/></g><path d="m449.84 573.5a44.24 44.24 0 0 0 16.51 9.55c2.83.88 5.82 1.15 8.62 2.1a7 7 0 0 1 2.88 1.62c1 1.06.73 2.25.26 3.5s-1 2.66-.39 4.08 2 2.61 3.1 3.74a71.58 71.58 0 0 1 6.72 7.73c3.89 5.43 6.46 12.34 4.09 18.93-2 5.52-6.66 9.59-10.5 13.8a46.26 46.26 0 0 0 -9.55 16.08c-2.17 6.16-3.14 12.56-4.73 18.87a20.11 20.11 0 0 1 -3.59 8.11 11.51 11.51 0 0 1 -7.45 3.92c-6 .79-11.7-1.66-17.55-2.36-5.26-.64-10.93-2.06-15.29-5.22a10.92 10.92 0 0 1 -3-3.18c-.39-.65-.73-1.28-.29-2a8.26 8.26 0 0 1 1.6-1.58 16.27 16.27 0 0 0 2.31-2.59 20.58 20.58 0 0 0 1.81-3.64c.73-1.64 1.52-3.25 2.28-4.88a42.51 42.51 0 0 0 3.31-9.05 16.9 16.9 0 0 0 -.37-9.14 18.32 18.32 0 0 0 -4.11-6.37 46.29 46.29 0 0 0 -6.34-5.27 54.39 54.39 0 0 1 -5.95-4.51c-7.28-7-8.45-18.75-7.19-28.24a38.55 38.55 0 0 1 9.89-21.37 24.4 24.4 0 0 1 10.08-6.64 22.83 22.83 0 0 1 14.2.34 39.58 39.58 0 0 1 8.58 4.17c1.34.84 2.58-1.28 1.24-2.12-5.2-3.25-11.09-5.74-17.31-5.85a23.44 23.44 0 0 0 -12.94 3.72c-6.65 4.25-11.51 11.35-14.12 18.72-3.45 9.77-3.6 21.68.55 31.26a25.37 25.37 0 0 0 3.85 6.26 31.09 31.09 0 0 0 5.93 5c4.36 3.11 9.59 6.52 11.37 11.87 2.2 6.66-1.68 13.49-4.41 19.36-.66 1.41-1.17 2.91-1.94 4.26a12.66 12.66 0 0 1 -2.47 2.94c-1.35 1.24-2.84 2.53-2.5 4.56.42 2.5 2.73 4.68 4.69 6.08a32.69 32.69 0 0 0 8.87 4 37.33 37.33 0 0 0 7.4 1.48c2.93.34 5.73 1.16 8.61 1.75 5.9 1.2 12.75 1.48 17.43-3s5.37-11.34 6.61-17.26c1.41-6.78 3.13-13.64 6.56-19.71 3.15-5.57 8-9.64 12-14.55s6.31-10.54 5.18-17c-1.23-7-5.79-12.72-10.54-17.74-1.19-1.26-2.5-2.44-3.61-3.76-1.43-1.7 0-3.24.33-5.06.45-2.52-1.19-4.46-3.35-5.5-2.49-1.21-5.25-1.44-7.92-2.09a44.81 44.81 0 0 1 -9.9-3.67 43.16 43.16 0 0 1 -8.43-5.72c-.76-.65-1.87.43-1.12 1.12z"/><path d="m461.46 586.69a1.09 1.09 0 0 0 -.5-.13 1 1 0 0 0 -.31 0 1.25 1.25 0 0 0 -.29.11 1.18 1.18 0 0 0 -.41.39l-.09.17a2.49 2.49 0 0 0 -.18.45 2.65 2.65 0 0 0 -.07.48 1.47 1.47 0 0 0 0 .47 1.57 1.57 0 0 0 .41.81 1.66 1.66 0 0 0 .71.45 1.48 1.48 0 0 0 .86 0 1.44 1.44 0 0 0 .85-.64 1.33 1.33 0 0 0 .18-.78 1.72 1.72 0 0 0 -.05-.35 2.68 2.68 0 0 0 -.12-.3v-.08a2.78 2.78 0 0 0 -.21-.27 1.28 1.28 0 0 0 -.58-.32 1.43 1.43 0 0 0 -.16 0h-.18a1.41 1.41 0 0 0 -.35.05 1.06 1.06 0 0 0 -.62.48l-.1.25a.81.81 0 0 0 0 .41.48.48 0 0 0 .07.26.74.74 0 0 0 .22.34 1 1 0 0 0 .73.3h.06-.28.06l-.25-.11h.06l-.21-.17.25.2-.21-.17v.06l-.16-.21.06.1-.11-.25a.27.27 0 0 1 0 .12v-.28.12-.28a.36.36 0 0 1 0 .1l.1-.25v.06l.16-.21s0 0-.07.06l.27-.13h-.09l.25-.1h-.12.28a.33.33 0 0 1 -.14 0h.27l-.15-.05.24.11-.14-.08.2.15a.57.57 0 0 1 -.11-.11l.15.2a.64.64 0 0 1 -.08-.14l.1.24a1.46 1.46 0 0 1 -.05-.2v.26a1 1 0 0 1 0-.3v.26a1.56 1.56 0 0 1 .1-.37l-.1.24.06-.1a2 2 0 0 0 .13-.31l-.1.23v-.06l-.15.18-.18.14-.21.09a.81.81 0 0 0 .38-.22l.14-.18a.6.6 0 0 0 .1-.32.45.45 0 0 0 0-.23.43.43 0 0 0 -.06-.22.77.77 0 0 0 -.35-.42z"/><path d="m456.45 586.5q.33-.66.72-1.29c.12-.2.26-.4.39-.6l.21-.29.12-.16c.09-.12-.14.18 0 0 .61-.76 1.3-1.48 2-2.18a1 1 0 0 0 .08-1.29 1 1 0 0 0 -1.27-.25 9 9 0 0 0 -1.28 1.1 15.71 15.71 0 0 0 -1.08 1.36 15.31 15.31 0 0 0 -1.5 2.68 1.06 1.06 0 0 0 -.09.72 1 1 0 0 0 .43.55.93.93 0 0 0 1.27-.33z"/><path d="m478.23 602.49-4.55 2.45a6 6 0 0 0 -2 1.43 3.64 3.64 0 0 0 -.11 3.91 6.17 6.17 0 0 0 3.16 2.54 3.86 3.86 0 0 0 3.1.16 3.28 3.28 0 0 0 1.61-3 11.32 11.32 0 0 0 -.84-3.51 7.63 7.63 0 0 1 -.59-3.54"/><path d="m477.77 601.71c-1.15.55-2.32 1.08-3.47 1.64a12.7 12.7 0 0 0 -3.05 1.82 4.69 4.69 0 0 0 -.52 6 7.72 7.72 0 0 0 5.51 3.26 4.09 4.09 0 0 0 4.4-3.89c.3-2.66-1.48-5-1.53-7.63a1.06 1.06 0 0 0 -2.08-.29c-.54 2.1.53 4 1.05 6 .32 1.19.39 3-.94 3.4a3.27 3.27 0 0 1 -2.2-.39 5.54 5.54 0 0 1 -1.87-1.34 2.51 2.51 0 0 1 -.17-3.43 13.37 13.37 0 0 1 2.61-1.61l3.18-1.93a.91.91 0 0 0 -.92-1.57z"/><path d="m473.53 644.28c4.39-1.67 8.88-3.7 11.79-7.55.64-.84-.81-2-1.48-1.14-2.78 3.46-6.72 5.46-10.74 7.11a.84.84 0 0 0 -.58 1 .82.82 0 0 0 1 .57z"/><path d="m442.53 566.09c6.28 10.63 6.8 23.58 7.16 35.93-1.57-3.16-6.73-3.12-8.83-.29s-1.27 7.13 1.2 9.64 6.15 3.49 9.68 3.52a55 55 0 0 0 5.5 28.65c3.57 7.22 8.7 13.59 12.26 20.82s5.42 16 2.05 23.28-11.22 11.72-14.93 18.87c-2.66 5.14-2.95 11.27-5.74 16.35s-7.88 8.62-13.1 11.25c-9.54 4.79-20.46 7.27-31 5.62s-20.61-7.73-25.78-17.13c-2.06-3.75-3.32-7.93-5.56-11.58-5.08-8.29-14.77-13.17-19-21.91-5.58-11.44.41-25.75 10.14-34 4.59-3.87 10.22-7.16 12.37-12.77 1.66-4.35.86-9.31 2.21-13.78 1.69-5.63 6.44-8.92 10.59-12.64s3.08-7.48 2.36-12.54c-1-6.91 1.25-14 5.13-19.8 11-16.34 29.68-22.7 48.56-23.87 3-.18 6.64 0 8 2.67a7.7 7.7 0 0 1 .52 3.67l-.19 9.75a17.29 17.29 0 0 0 -12.13-5.55"/><path d="m441.86 566.48c6.1 10.75 6.47 23.5 6.76 35.54l2-.54a6.12 6.12 0 0 0 -6.69-2.8 6.63 6.63 0 0 0 -5.29 5.6 9.51 9.51 0 0 0 3.18 8.45 15.41 15.41 0 0 0 9.94 3.34l-1.18-1.18a55.5 55.5 0 0 0 3 23.45c2.69 7.49 7.22 13.91 11.32 20.67 4 6.56 7.47 13.91 6.88 21.78-.56 7.38-5.68 12.14-10.51 17.14a34.41 34.41 0 0 0 -6 7.79c-1.77 3.41-2.56 7.17-3.62 10.82a22.24 22.24 0 0 1 -5.06 9.47 32.75 32.75 0 0 1 -8.56 6.15c-13.21 7-29.76 9.3-43.25 1.77a31.92 31.92 0 0 1 -13.56-14.51c-1.64-3.53-2.94-7.22-5.18-10.44a47.82 47.82 0 0 0 -6.54-7.32c-4.65-4.41-10.13-8.75-12.4-15-2.2-6-1.3-12.7 1.35-18.43a35 35 0 0 1 5.48-8.43 54.56 54.56 0 0 1 7.41-6.59 34.93 34.93 0 0 0 7.11-6.89c2.2-3.09 2.84-6.67 3.13-10.38s.55-7.33 2.65-10.55c1.79-2.74 4.39-4.86 6.85-7s4.64-4.28 5.06-7.67c.39-3.11-.62-6.17-.82-9.26-.93-14.46 10.94-26.72 22.91-33a67.06 67.06 0 0 1 18.85-6.23 90.47 90.47 0 0 1 10-1.23c2.44-.17 6.87-.61 7.78 2.43.53 1.75.15 3.92.12 5.73l-.13 6.58 2.21-.92a18.94 18.94 0 0 0 -13.06-6c-1.73-.07-1.73 2.63 0 2.7a16.06 16.06 0 0 1 11.23 5.16 1.32 1.32 0 0 0 2.22-.92l.13-6.82c0-2 .35-4.23-.21-6.18-.94-3.23-4.18-4.29-7.22-4.42a55 55 0 0 0 -10 .81 80.12 80.12 0 0 0 -10.31 2.09c-13.41 3.67-26 11.54-33 23.83a31.6 31.6 0 0 0 -3.93 10.92 26.19 26.19 0 0 0 -.29 5.87c.13 1.75.48 3.47.69 5.21a11 11 0 0 1 -.11 4.28 8.37 8.37 0 0 1 -2.8 3.89 57.73 57.73 0 0 0 -7.39 7 19.06 19.06 0 0 0 -4 10.12c-.43 3.94-.28 8-2.44 11.5-1.8 2.93-4.6 5.11-7.28 7.19a52.94 52.94 0 0 0 -7.81 7 35 35 0 0 0 -8.51 18.43 24.54 24.54 0 0 0 5.79 18.84c4.34 5.28 10.22 9.17 14.24 14.73 2.36 3.27 3.72 7.05 5.4 10.69a33.75 33.75 0 0 0 6 9.09c10.57 11.27 27 14 41.5 10.35 7.53-1.88 15.32-5.21 21.22-10.36a23.28 23.28 0 0 0 6.36-8.92c1.48-3.68 2.1-7.63 3.46-11.35 2.48-6.75 8.54-10.92 12.84-16.4a22.23 22.23 0 0 0 4.62-9.78 27.77 27.77 0 0 0 -.6-11.65c-2-8-6.85-14.72-11.18-21.58-4.53-7.18-7.92-14.74-9.21-23.19a55.52 55.52 0 0 1 -.5-12.15 1.19 1.19 0 0 0 -1.18-1.18c-4.86-.06-10.83-2.39-10.93-8.09a4.59 4.59 0 0 1 3.13-4.69 4.05 4.05 0 0 1 4.83 1.62 1.07 1.07 0 0 0 2-.53c-.42-12.4-1-25.39-7.55-36.32a.78.78 0 0 0 -1.34.78z"/><path d="m445.4 607.1c.06 0 .32 0 .09 0a1.09 1.09 0 0 1 .24 0l.41.1.41.13c.05 0 .31.08.08 0a1.11 1.11 0 0 1 .16.07 5.62 5.62 0 0 1 .79.46c.05 0 .11.07.15.11-.17-.18 0 0 .06.05l.31.29s.18.22.09.1.07.1.06.11-.06-.15 0-.05c0-.16 0-.19 0-.1s0-.23 0-.06q.1-.23 0-.09.17-.19.06-.09a.56.56 0 0 1 .5-.17.46.46 0 0 1 .27.15l-.06-.06c.09.13.12.16.06.07s.06.23 0 0v-.09c0-.11 0-.07 0 .11a2.48 2.48 0 0 0 0-.39 2.21 2.21 0 0 0 -.5-1.3 1 1 0 0 0 -1.4 0 1 1 0 0 0 0 1.4s-.12-.21-.05-.07.05.12 0 0 0 0 0 .08 0 .14 0 0 0 0 0 0a1.36 1.36 0 0 0 0 .2 2.24 2.24 0 0 0 .33 1.07 1.5 1.5 0 0 0 1.2.68 1.36 1.36 0 0 0 1.18-.72c.78-1.54-1.12-2.75-2.32-3.26a6.17 6.17 0 0 0 -2.16-.48.82.82 0 0 0 -.82.82.84.84 0 0 0 .82.82z"/><g fill="#fff"><path d="m353.77 707.54q-2.31 14.44-3.66 29c-.45 4.9-.82 9.81-1.08 14.72-.13 2.46-.24 4.91-.32 7.37a72.71 72.71 0 0 0 -.15 7.38 1 1 0 0 0 1.9 0c.25-2.44.16-4.93.25-7.38s.2-4.91.33-7.37c.24-4.74.54-9.49.93-14.23q1.17-14.58 3.34-29.08c.15-1-1.38-1.44-1.54-.42z"/><path d="m534.11 770.87a24.68 24.68 0 0 1 13.63-5.25c1.12-.09 1.15-1.82 0-1.76a25.29 25.29 0 0 0 -14.74 5.93c-.76.63.32 1.69 1.08 1.08z"/><path d="m247.7 575.48c-4.22 2.54-7.8 7.18-7.3 12.35.45 4.71 4.27 9 9.16 9l-1.19-1.56a6.62 6.62 0 0 0 4.63 8.73 6.79 6.79 0 0 0 7.81-6.9h-2.81c.38 3 1.56 6.88 5.32 6.65 4.17-.26 5.54-4.77 5.71-8.25.07-1.54-2.48-1.94-2.74-.37-.32 1.88-.46 5.43-3 5.72-2 .22-2.28-2.78-2.47-4.13-.22-1.6-2.93-1.23-2.83.38.14 2.33-2.05 4.71-4.5 4.12a4.16 4.16 0 0 1 -2.72-5.22 1.24 1.24 0 0 0 -1.19-1.57c-3.83.05-6.87-3.57-7-7.26-.17-4.21 2.62-8 6-10.19.91-.6.09-2-.85-1.46z"/><path d="m229.59 654.22c.34-2.54 2.7-4.09 5-4.76 2-.6 5.25-1.57 6.4.82 1.95 4-1.19 9-4.56 11.09-1.13.7-.41 2.76.95 2.24 2.06-.78 7-2.5 7.69 1 .66 3.13-3.23 4.86-5.49 5.81a1.33 1.33 0 0 0 0 2.54 7.91 7.91 0 0 1 3.54 1.83c1.1 1.18.42 2.61-.85 3.34-1.55.89-3.59.9-5.32 1.1-2 .23-4 .43-6 .72-1.5.22-1.16 2.8.36 2.67 2.82-.24 5.64-.59 8.44-1 2.26-.31 4.54-1 5.88-3a4.47 4.47 0 0 0 -.17-5.32 10 10 0 0 0 -5.14-2.94l.32 2.41c3.56-1.53 8.2-4.42 6.88-9.07a5.28 5.28 0 0 0 -4-3.57c-2.32-.52-4.58.25-6.73 1.09l.95 2.25a13.18 13.18 0 0 0 5.45-7.14c.81-2.59.93-6-1-8.15-2.12-2.4-6-1.36-8.63-.39-2.85 1.08-5.2 3.25-5.47 6.41-.09 1 1.46 1 1.59 0z"/><path d="m280 689.86c-3.37-.1-2.3-4.69-1.61-6.61.81-2.28 1.86-4.8 4-6.18 1.84-1.21 4.26-1.32 5.74.48a8.66 8.66 0 0 1 1.54 5.75 1.24 1.24 0 0 0 2.43.33 3 3 0 0 1 3.88-1.82 4.67 4.67 0 0 1 2.66 4.22c.2 4.75-4.33 8.17-7.19 11.34-.82.91 0 2.84 1.34 2.29 1-.39 2.28-1.07 3.32-.62s.41 1.87 0 2.66a9.47 9.47 0 0 1 -4.2 4 8.66 8.66 0 0 1 -5.67.61 9.55 9.55 0 0 1 -2.9-1.19 9.45 9.45 0 0 1 -1.19-.89c-.18-.17-.36-.34-.53-.52l-.25-.27q-.48-.68-1.5 0v-2a7.81 7.81 0 0 1 -4.46 2.39c-.76.12-1.89.26-2.4-.41a3.73 3.73 0 0 1 -.31-2.22 14.09 14.09 0 0 1 4.37-9.29c1.21-1.19-.58-2.93-1.83-1.84-3.51 3.06-6.17 8.57-5.17 13.31 1.21 5.8 9.06 2.89 11.79.06a1.43 1.43 0 0 0 0-2 2.14 2.14 0 0 0 -3.59 1.39c-.19 1.85 1.84 3.46 3.18 4.39a11.8 11.8 0 0 0 10.4 1.52 12 12 0 0 0 7.33-7.14c.64-1.81.36-3.8-1.4-4.85s-3.89-.53-5.71.23l1.33 2.28c3.8-4.28 9.87-9.49 7.27-15.95a6.34 6.34 0 0 0 -5.57-4.24 5.39 5.39 0 0 0 -5.4 3.93l2.44.33c0-2.82-.65-6-2.87-8-2.51-2.19-6.08-1.78-8.6.17-2.75 2.13-4.34 6-5 9.36-.58 3 .65 7 4.33 7a1 1 0 0 0 0-2z"/><path d="m294.92 762.32a7 7 0 0 1 -2.92-7.06c.37-1.65 1.74-1.63 2.86-.62s1.69 2.31 2.7 3.32a1.13 1.13 0 0 0 1.87-.5 16.65 16.65 0 0 1 5.57-10.08c1.36-1.16 4.06-2.83 4.57 0 .39 2.06-.83 4.2-.88 6.28a1.3 1.3 0 0 0 2.19.91c1.2-1.34 3.41-3.85 5.45-2.93 2.28 1 1.63 4.36 1.27 6.26h2.62c-.15-.4.37-.63.73-.54.54.13.83.84 1 1.3a11.09 11.09 0 0 1 0 4.59c-.2 1.72 2.49 1.7 2.69 0 .32-2.75.61-6.57-2.23-8.19-2.27-1.31-5.83.81-4.82 3.56.42 1.13 2.35 1.43 2.62 0 .61-3.22.95-7.51-2.52-9.28s-6.56 1-8.63 3.41l2.19.91c0-2.75 1.62-5.31.36-8-1.17-2.5-3.91-2.77-6.14-1.52-4.5 2.52-7.49 7.81-8.23 12.8l1.87-.5c-1.47-1.44-2.31-3.48-4.34-4.28a3.3 3.3 0 0 0 -4.47 1.66c-1.56 3.66.53 8.11 3.67 10.15 1 .65 1.89-.92.92-1.58z"/><path d="m336.93 658.15c-5.77.38-9.53 7.35-8.31 12.64a6.08 6.08 0 0 0 5.21 4.86 5.08 5.08 0 0 0 5.54-3l-2.29-.64c-1.25 3.56 2.23 6.81 5.7 6.09 4-.82 5.49-5.29 4.13-8.79-.35-.89-1.8-1.38-2.29-.3a2.49 2.49 0 0 0 2.09 3.56c1.94.13 3.52-1.63 4.49-3.09a10.47 10.47 0 0 0 1.68-5.08 10.12 10.12 0 0 0 -.21-2.69c-.2-1-.84-2.29-.41-3.29a1.29 1.29 0 0 0 -.76-1.85 21.84 21.84 0 0 0 -9.38-1.15c-1.48.16-1.56 2.41 0 2.36a24.74 24.74 0 0 1 8.71 1.22l-.88-1.55a6 6 0 0 0 0 3.85 9.11 9.11 0 0 1 .31 3.71 7.93 7.93 0 0 1 -1.26 3.2 6.68 6.68 0 0 1 -1.13 1.3 5 5 0 0 1 -.87.54c-.36.23 0-.39-.25.22l-2.29-.3c.8 2 .52 4.73-1.79 5.62a2.44 2.44 0 0 1 -3.33-2.94c.5-1.48-1.73-2-2.29-.64s-2.31 1.56-3.53 1.25a4.21 4.21 0 0 1 -2.95-4c-.33-3.74 2.19-8.84 6.33-9.2 1.21-.11 1.23-2 0-1.91z"/><path d="m306.82 632.15a8.82 8.82 0 0 0 3.13 2.38 1.05 1.05 0 0 0 .7.09.85.85 0 0 0 .58-.53.83.83 0 0 0 0-.69 1 1 0 0 0 -.58-.53l.22.09a8 8 0 0 1 -1.59-.88l-.18-.13c-.1-.07 0 0 .06.05l-.1-.08-.34-.29a8.08 8.08 0 0 1 -.72-.63.86.86 0 0 0 -1.2 0 .87.87 0 0 0 0 1.2z"/><path d="m353.36 768.75a6.86 6.86 0 0 1 8.67-.53c3.58 2.87-.23 6.11-2.89 7.7a1.17 1.17 0 0 0 .28 2.1 7.8 7.8 0 0 0 3.87.1c.47-.06 1.28-.25 1.69.09s.29 1.55.15 2.07a4.62 4.62 0 0 1 -7.43 2.4l-.64 2.4c3.22.25 3.86 3.78 1.64 5.78a7.11 7.11 0 0 1 -3.71 1.61 4.31 4.31 0 0 1 -2.11-.12 1.68 1.68 0 0 1 -.86-.69l-.13-.29c0-.36-.11-.41-.43-.17l-.88-.37.09.08-.31-1.18v.14a1.2 1.2 0 0 0 2.18.91l.07-.12a1.18 1.18 0 0 0 0-1.23 1.73 1.73 0 0 0 -2.75-.21 3.38 3.38 0 0 0 -.08 3.77c1.64 2.8 5.57 2.44 8.16 1.39s4.91-3.54 4.79-6.62-2.7-5-5.64-5.25c-1.41-.1-1.57 1.71-.65 2.39a7.15 7.15 0 0 0 11-3.61c.59-1.87.46-4.43-1.55-5.37s-3.95.57-5.85-.12l.28 2.11c1.9-1.24 3.92-2.72 4.87-4.85a5.16 5.16 0 0 0 -1.41-6 8.4 8.4 0 0 0 -11.54.59.8.8 0 0 0 1.13 1.13z"/><path d="m422.64 758.54c-5.79-3.1-13.08-.7-16.45 4.78-3.13 5.07-3.44 13.92 2 17.67 2.63 1.83 6.68 1.34 8.34-1.55l-2.39-.65c.28 4.39 5 7 9 6.08 4.8-1.06 7.14-6.31 7.48-10.74l-2.61.35a4 4 0 0 0 5.58 2.17 10.6 10.6 0 0 0 5.07-5.1 12.54 12.54 0 0 0 1.24-7.2c-.26-1.94-1.44-5.17-4-4.29-2.3.77-2.1 3.9-.21 5s4.66.26 6.11-1.43c3.55-4.14.66-9.72-3.72-11.78a12.51 12.51 0 0 0 -14.62 3.06c-1.07 1.3.67 3.15 1.89 1.88a10.32 10.32 0 0 1 9.65-3.1c3 .7 7 3.77 5.29 7.31a3.39 3.39 0 0 1 -1.53 1.62 2.07 2.07 0 0 1 -1.22.24c-.14 0-.89-.52-1-.22 0 .06.42.73.45.83a6.28 6.28 0 0 1 .29 1.42 9.33 9.33 0 0 1 -.06 2.53 9.82 9.82 0 0 1 -2.26 4.91c-.68.77-3.65 3.42-4.37 1.44a1.34 1.34 0 0 0 -2.61.36c-.23 3.14-1.71 6.9-4.93 8-2.44.86-6.17-.5-6.37-3.39a1.29 1.29 0 0 0 -2.38-.64 3 3 0 0 1 -3.3 1.4 4.82 4.82 0 0 1 -3.23-2.53 12.65 12.65 0 0 1 -.95-9.37 11.21 11.21 0 0 1 5.6-7.21 10.16 10.16 0 0 1 9.19-.16c1.12.57 2.1-1.09 1-1.69z"/><path d="m394 835.15c-3-.46-5.3-2.45-7-4.91a30.34 30.34 0 0 1 -4.29-9c-.77-2.79-.48-7.54 3.22-8.12 3.08-.49 5.07 3.2 6.25 5.44a1.18 1.18 0 0 0 2.19-.59 13.61 13.61 0 0 1 2-8.07c1.32-2.11 3.78-4.45 6.49-3.9 2.26.46 3.47 2.93 3.59 5.05.16 2.95-1.39 5.73-2.73 8.25a1.28 1.28 0 0 0 1.1 1.91c2-.06 3.62-1 5.52-1.29 1.38-.21 3.12.18 2.75 1.92-.7 3.27-3.82 6-6.84 7.15l1.63 1.63c.17-.43.9-.34 1.24-.25a1.66 1.66 0 0 1 1.26 1.58c.24 2.1-1.43 4.37-2.74 5.84a14.07 14.07 0 0 1 -4.82 3.58 10.57 10.57 0 0 1 -2.86.84c-.43.06-2.93.2-2.32-.79l-1.86.49c-.16-.08-.25.34-.43.6a4.69 4.69 0 0 1 -.87.91 6 6 0 0 1 -6.35.74c-2.88-1.5-3.57-5.48-1.94-8.12.88-1.44-1.33-2.7-2.24-1.31-2.92 4.43-.62 11.14 4.64 12.45a8.78 8.78 0 0 0 7.28-1.44c1.63-1.21 4.16-4.78 1.28-6.18a1.39 1.39 0 0 0 -1.85.49 3.18 3.18 0 0 0 1.06 4.29c1.54 1 3.56.73 5.24.32a16 16 0 0 0 8.67-5.81c2-2.5 4.29-6.88 1.7-9.77-1.88-2.1-5.58-1.93-6.65.84a1.33 1.33 0 0 0 1.63 1.63 14.07 14.07 0 0 0 5.68-3.77c1.51-1.68 3.13-4.13 3.15-6.48 0-2.19-1.74-3.6-3.78-3.92-2.55-.39-4.69 1.19-7.18 1.28l1.1 1.92c1.7-3.23 3.5-6.78 2.91-10.54-.44-2.86-2.34-5.76-5.32-6.4-3.39-.74-6.57 1.4-8.51 4a15.71 15.71 0 0 0 -3 10.31l2.19-.59c-1.33-2.48-3.05-5.24-5.82-6.24a6 6 0 0 0 -7.14 2.85c-1.86 3-1.23 6.67 0 9.79a33.15 33.15 0 0 0 4.52 8.28 12.11 12.11 0 0 0 8 4.95c1.07.14 1.33-1.73.26-1.9z"/><path d="m335.2 851.39a3.1 3.1 0 0 1 4.44.77 2.9 2.9 0 0 1 -1.6 4c-1.16.38-1 2.26.3 2.21s3.34-.07 4.31 1.19c.58.76.57 2.33-.5 2.61l.63 2.31 4.47-1.38-1.51-.85a6 6 0 0 1 -.93 4.5 15.43 15.43 0 0 1 -1.42 2c-.25.32-.52.62-.79.93l-.46.5c-.31.26-.31.32 0 .18l1 .59-.08-.12.12.91-.18.26-1.4.18.1.06c1.09.64 2.4-.94 1.39-1.8l-.09-.08a1.2 1.2 0 0 0 -1.4-.18 1.39 1.39 0 0 0 .72 2.61c1.31-.05 2.48-1.94 3.2-2.86 1.87-2.39 3.3-5.23 2.54-8.34a1.23 1.23 0 0 0 -1.5-.85l-4.45 1.43a1.2 1.2 0 0 0 .63 2.31c2.34-.63 3.14-3.4 2.23-5.48-1.09-2.48-4.23-3.17-6.67-2.88l.3 2.21a5.19 5.19 0 0 0 2.84-7 5 5 0 0 0 -7.21-1.58c-.92.71 0 2.29.93 1.59z"/><path d="m422.29 879.84a10.62 10.62 0 0 1 .25-9.45c.34-.62.95-1.87 1.77-1.93s1.49.9 1.89 1.44c.84 1.14 1.53 2.33 2.87 3a1.2 1.2 0 0 0 1.78-1 19.12 19.12 0 0 1 1.53-7 12.61 12.61 0 0 1 3.57-5.16c1.73-1.27 3.62-.56 4.58 1.24 1.2 2.26.33 5-.31 7.3l2.48.34a7.81 7.81 0 0 1 1.17-3.24c.49-.8 1.69-2.47 2.79-2.28s1.41 1.51 1.32 2.37a8.94 8.94 0 0 1 -1.65 3.58c-.66 1 .69 2.5 1.74 1.75s3.71-2.37 3.64-.14a13.31 13.31 0 0 1 -.64 3.12c-.17.57-.35 1.12-.56 1.67-.11.3-.23.61-.36.91-.34.34-.19.51.42.51-1.2-1.14-3 .68-1.82 1.82 3.48 3.27 5.46-6.08 5.53-8a3.37 3.37 0 0 0 -2.67-3.61 6.75 6.75 0 0 0 -4.82 1.54l1.74 1.75c1.12-1.77 2.29-3.79 2-6a4.51 4.51 0 0 0 -3.16-3.73c-2-.48-3.71.94-4.88 2.39a10.74 10.74 0 0 0 -2.27 5.59c-.17 1.44 2.11 1.67 2.49.34.83-3 1.61-6.35 0-9.23a5.51 5.51 0 0 0 -6.37-2.91c-2.69.86-4.47 3.68-5.64 6.08a21.76 21.76 0 0 0 -2.18 9l1.78-1c-1.92-.82-2.49-3.23-4.41-4.16s-3.68.3-4.74 2a12.16 12.16 0 0 0 -.28 12c.52 1 1.89.12 1.45-.84z"/><path d="m369.22 710.89c-2 1.89-4.1 4.17-3.63 7.16a3.93 3.93 0 0 0 2.14 2.94 3.47 3.47 0 0 0 3.51-.17l-1.23-.16a7.53 7.53 0 0 0 5.74 2.71 1 1 0 0 0 0-2 5.92 5.92 0 0 1 -4.31-2.13 1 1 0 0 0 -1.22-.16 1.56 1.56 0 0 1 -1.82.07 2.24 2.24 0 0 1 -1-2c0-2.11 1.64-3.71 3-5.08.75-.75-.39-1.89-1.17-1.17z"/><path d="m486.83 793.64a15.16 15.16 0 0 0 -15.18 5.47c-2.88 3.64-4.87 11.07.49 13.66l-.44-1.7a7.36 7.36 0 0 0 1.79 10.27 7.49 7.49 0 0 0 5.77.9 7.13 7.13 0 0 0 2.42-1.08c.87-.62 1.38-1.6 2.22-2.22s1.83.47 2.54 1.07a9.06 9.06 0 0 0 2.95 1.7 11.28 11.28 0 0 0 6.23.21c4-.93 7.83-4 8.89-8.08 1.11-4.29-1.37-9.31-5.82-10.36l.31 2.35c4.62-2.69 7.91-8.5 6.6-13.91-.56-2.32-2.4-4.61-5-4.4-2.33.19-4.51 2.33-3.74 4.75a1.3 1.3 0 0 0 2.34.31 6 6 0 0 0 -4.25-9.31c-5.66-.53-8.48 5.28-9.62 9.87a1.27 1.27 0 0 0 2.44.67c.85-3.21 2.24-7.46 6.1-8a3.42 3.42 0 0 1 3.11 5.45l2.35.31c-.45-1.41 1.79-1.79 2.63-1.11 1.27 1 1.43 3 1.3 4.53a11.2 11.2 0 0 1 -5.57 8.6 1.3 1.3 0 0 0 .31 2.41 5.9 5.9 0 0 1 4.06 7c-.8 3.42-4 5.78-7.32 6.48a8.44 8.44 0 0 1 -5-.39c-1.56-.69-2.53-2.31-4.17-2.84s-3.11.41-4.2 1.68a5 5 0 0 1 -3.89 2c-4 0-5.83-4.51-3.61-7.58a1.24 1.24 0 0 0 -.44-1.69c-4.23-2-1.61-8.16.62-10.65a13.09 13.09 0 0 1 12.29-4.41c1.25.27 1.79-1.62.53-1.93z"/><path d="m507.91 862.82c-2.25-1.63.4-4.44 1.81-5.47a5.2 5.2 0 0 1 3.49-1.28 1.82 1.82 0 0 1 1.7 2.16h2.34a6.51 6.51 0 0 1 2.18-7.12c1-.8 2.87-1.74 3.73-.34a19.92 19.92 0 0 1 2 5.44 1.26 1.26 0 0 0 2.47-.33c0-.51 0-2.19.78-2.29s.82 1.24.91 1.79a9.55 9.55 0 0 1 -.68 5.3l2.36.32-.59-1.49c-.54-1.38-2.68-.87-2.27.63l.41 1.53a1.28 1.28 0 0 0 2.32.3 11.94 11.94 0 0 0 1.14-5.32 7.91 7.91 0 0 0 -1.24-4.61 2.81 2.81 0 0 0 -3.72-.56c-1.55.93-1.83 2.76-1.89 4.41l2.46-.33a29.55 29.55 0 0 0 -1.31-3.92 9.32 9.32 0 0 0 -1.75-3.16c-1.59-1.55-4.17-.88-5.84.16a9 9 0 0 0 -3.79 10.25 1.23 1.23 0 0 0 2.34 0 4.1 4.1 0 0 0 -2.29-4.76c-2.08-1-4.5-.19-6.27 1.06s-3.42 2.78-3.76 4.93a3.78 3.78 0 0 0 2.31 4.3c1 .39 1.41-1.06.67-1.59z"/><path d="m544 774a5.65 5.65 0 0 0 -.61 4.7 6 6 0 0 0 2.88 3.84 1 1 0 0 0 1-1.77l-.39-.27c.17.12-.07-.06-.09-.07l-.14-.13c-.13-.11-.25-.24-.37-.36l-.16-.18-.1-.12-.09-.12-.13-.2c-.08-.14-.16-.27-.23-.41l-.11-.22c-.13-.26.06.17-.05-.11s-.11-.3-.16-.45a4.19 4.19 0 0 1 -.2-1.73c0-.09 0-.18 0-.28a4.64 4.64 0 0 1 .11-.51c.08-.32.16-.64.26-1a.79.79 0 0 0 -.47-.95.81.81 0 0 0 -1 .33z"/><path d="m491.11 732.87c-4.66.8-6.57-6.28-7-9.64-.25-1.94 0-4.17 1.51-5.56 1.21-1.12 3.39-1.28 4.34.26.5.81 2.06.8 2.23-.29.6-3.81 3.63-8.15 7.92-8a4 4 0 0 1 3.7 3.69c.35 2.39-.75 4.77-1.69 6.9a1.3 1.3 0 0 0 1.76 1.76c3-1.47 6 1.3 6 4.28 0 3.41-2.73 5.79-5.79 6.65a1.33 1.33 0 0 0 0 2.54c2.32.61 1.05 3.53 0 4.69a16.89 16.89 0 0 1 -5 3.78 13.35 13.35 0 0 1 -6.15 1.72c-1.87-.06-4.17-1.41-3.44-3.58l-2.27.6c.1.09-.2.41-.38.54a1.58 1.58 0 0 1 -1.42.13 3.92 3.92 0 0 1 -2.34-2.24c-1.12-2.57.51-5.35 2.13-7.28 1.05-1.25-.67-3-1.82-1.82-3.19 3.4-5.05 9.18-.93 12.7 1.55 1.32 3.9 2 5.75.86 1.62-1 2.52-3.36.93-4.81a1.38 1.38 0 0 0 -2.27.6c-1 2.9 1.13 5.78 3.87 6.65 3.18 1 6.86-.29 9.68-1.76s5.79-3.61 7.07-6.49c1.15-2.6.26-6-2.73-6.83v2.54c4.57-1.3 8.32-5.31 7.6-10.3a6.92 6.92 0 0 0 -9.8-5.4l1.76 1.76c1.23-2.79 2.48-5.74 1.92-8.86a6.44 6.44 0 0 0 -5.08-5.42c-5.71-1-10.58 4.54-11.35 9.76l2.24-.3a5.19 5.19 0 0 0 -6.63-1.76c-2.54 1.23-3.72 4.16-3.73 6.85a19.38 19.38 0 0 0 2.75 9.44c1.5 2.45 4.23 4.17 7.15 3.4 1.15-.31.65-2-.48-1.75z"/><path d="m478.14 676a10.17 10.17 0 0 0 1.29 5.07 4.56 4.56 0 0 0 3.79 2.12 4 4 0 0 0 3.23-2.12c.67-1.09 1-2.46 2-3.34l-1.77-.46a5 5 0 0 0 8.14 2.07 5.61 5.61 0 0 0 1.5-4.74c-.08-.89-.27-1.76-.37-2.64a15.21 15.21 0 0 1 .08-2.7 1.08 1.08 0 0 0 -2-.54c-1.52 2.46.8 5.46-.12 8a2.79 2.79 0 0 1 -5.19 0 1.07 1.07 0 0 0 -1.77-.47 10.52 10.52 0 0 0 -1.58 2.58c-.38.8-.76 1.85-1.6 2.27-1 .51-2.2-.23-2.78-1.06a8.39 8.39 0 0 1 -1.07-4c-.1-1.12-1.85-1.15-1.76 0z"/><path d="m562.11 691.44a13.14 13.14 0 0 0 -10.11 15.21c.56 3.05 2.34 6.18 5.28 7.48 3.44 1.52 6.59-.52 9.25-2.58l-2.16-.9a7.9 7.9 0 0 0 10.54 6.26c5.19-1.83 7.53-7.21 7.34-12.41l-2.54.68a4.21 4.21 0 0 0 5 1.94 5.79 5.79 0 0 0 3.9-4.91c.76-4.59-.19-10.65-3.8-13.87v2a7.72 7.72 0 0 0 1.19-8.34 8.78 8.78 0 0 0 -6.95-5.14 11.65 11.65 0 0 0 -9.15 2.42c-2.39 2.16-1.93 6.34 1.58 6.82a1.43 1.43 0 0 0 1.37-1.81 7.08 7.08 0 0 0 -8.53-3.93c-3.81 1-6.51 4.9-7.2 8.62-.24 1.26 1.61 2.29 2.25.94 1.15-2.47 2.37-5.4 5-6.57 1.86-.82 4.86-.4 5.7 1.7l1.37-1.8c-.77-.1 0-1.5.15-1.7a5.88 5.88 0 0 1 2.64-1.49 8.94 8.94 0 0 1 5.8-.07c3.17 1.15 5.31 5.52 2.79 8.34a1.4 1.4 0 0 0 0 2c2.58 2.29 3.11 5.91 3.19 9.19 0 1.48 0 3.57-1.27 4.6-.81.65-2.23.77-2.73-.28a1.37 1.37 0 0 0 -2.54.69c.16 3.77-1.09 7.87-4.74 9.63-3.27 1.57-7.4 0-7.92-3.82-.14-1.06-1.48-1.06-2.12-.56-2 1.55-4.48 3.33-7 1.85-2.22-1.31-3.33-4.06-3.56-6.52a11.23 11.23 0 0 1 8.4-11.87.92.92 0 0 0 -.49-1.77z"/><path d="m571.52 758a2.83 2.83 0 0 1 2.27-2.75 2.58 2.58 0 0 1 2.73 2 1.08 1.08 0 0 0 1.57.64 1.76 1.76 0 0 1 1.93.2 2.3 2.3 0 0 1 .69.73 1.35 1.35 0 0 1 .2.79 1.18 1.18 0 0 0 1 1.47 1.2 1.2 0 0 0 1.34-1.16c.41-3.13-3.61-5.56-6.22-3.88l1.57.64a4.61 4.61 0 0 0 -5.17-3.27 4.33 4.33 0 0 0 -3.41 4.8c.14.9 1.47.62 1.52-.2z"/><path d="m601.73 639.11c-2.4 1.79-3.1 4.71-3.54 7.53s-.24 5.75 2.58 7.09c5.64 2.68 11.07-3.34 11-8.69l-2.22.6c1.42 2.74 3.88 6.13 7.46 5.09 4-1.17 4.48-5.79 4.38-9.3l-2.36.64c1.25 2.72 5 3 7.06 1.17 2.79-2.43 2.35-6.36 1.35-9.52l-2.2 1.28a3.29 3.29 0 0 0 3.83.71 4.4 4.4 0 0 0 2.36-3.7 10.89 10.89 0 0 0 -3.54-8.9 1.36 1.36 0 0 0 -1.9 0 5.33 5.33 0 0 0 -1.37 2.29 1.35 1.35 0 0 0 2.6.72 2.39 2.39 0 0 1 .67-1.11h-1.89a8.66 8.66 0 0 1 2.67 4.68 5.23 5.23 0 0 1 0 2.72c-.23.61-.93 1.39-1.53.72a1.33 1.33 0 0 0 -2.21 1.28c.63 2 1.29 4.33.08 6.2-.87 1.34-3 1.9-3.76.17a1.27 1.27 0 0 0 -2.35.64c.09 2.27.27 6.08-2.5 6.94-2.31.71-3.89-2.31-4.75-3.94a1.2 1.2 0 0 0 -2.22.61c.11 3.77-3.46 8.7-7.72 6.85-2.24-1-1.79-3.72-1.49-5.68.32-2.14.76-4.37 2.54-5.81.72-.58-.25-1.85-1-1.29z"/><path d="m637.65 710.08a9.61 9.61 0 0 1 -5.39-7.41 11 11 0 0 1 3.08-8.89c2.13-2.29 6.34-5.18 9.61-3.86 3.77 1.51 3.39 6.64 3.16 9.88-.09 1.22 1.39 1.51 2.16.9 3.11-2.46 7.31.3 7.63 3.82.37 4.13-3.24 7.07-7.11 7.33-1.46.1-2 2.4-.36 2.72 2.17.43 2 3 1.06 4.47a9.78 9.78 0 0 1 -5 3.55 12.76 12.76 0 0 1 -11.74-1.92l.71 1.24.14.06-1.62-2.11c-1.2 2.65-5.07 3.86-7.38 1.83s-1.45-6.07.92-7.67a1.28 1.28 0 0 0 -1.29-2.2c-4.38 2-5.11 8.71-1.66 11.89a7.76 7.76 0 0 0 11.89-2.4 1.45 1.45 0 0 0 -1.62-2.11 2.93 2.93 0 0 0 -2.26 2.71 1.47 1.47 0 0 0 .71 1.25 15.41 15.41 0 0 0 16.31 1.17c2.4-1.28 4.77-3.45 5.34-6.22s-.95-5.68-3.74-6.21l-.37 2.72c5.77-.42 10.73-5.11 9.62-11.16a7.47 7.47 0 0 0 -11.93-4.55l2.16.89c.24-3.63.25-7.59-2.38-10.43s-6.46-2.35-9.63-.83c-5.76 2.78-9.93 9.22-8.11 15.69a10.7 10.7 0 0 0 6.51 7.33c.85.3 1.45-1.09.62-1.48z"/><path d="m694.81 647.78c-4.81-1.36-10.52-2-14.29 2a9.79 9.79 0 0 0 -.12 13.09c.75.88 2 .1 2.1-.87a2 2 0 0 0 -1.92-2.1 2.43 2.43 0 0 0 -2.52 1.9c-.71 2.49.43 5.63 1.94 7.6 3.09 4 9.73 4.5 12.49-.18l-2.39-.31a3.61 3.61 0 0 0 4 2.61c2.24-.2 3.64-2.17 4.79-3.88 2.91-4.28 6.51-8.61 8-13.66a26.37 26.37 0 0 0 .89-7.4c0-2.19.14-4.89-.68-7-1.69-4.27-7.46-2.53-10.39-.76-2 1.24-3.73 3.48-3.28 6a4.06 4.06 0 0 0 5.07 3.22 1.41 1.41 0 0 0 1-1.7 8.52 8.52 0 0 0 -4.68-5c-1.41-.61-2.67 1.34-1.24 2.12a7 7 0 0 1 3.26 3.63l1-1.7a1.3 1.3 0 0 1 -1.67-1.3 3.24 3.24 0 0 1 1.31-2.42 10.08 10.08 0 0 1 4.81-2 2.46 2.46 0 0 1 2 .39c.7.66.62 2 .68 2.91a43.59 43.59 0 0 1 .08 6.26c-.35 4.57-2.39 8.2-4.9 11.92-1.27 1.88-2.51 3.79-3.81 5.65a5.2 5.2 0 0 1 -1.9 1.94c-.63.28-1.55.21-1.72-.56a1.32 1.32 0 0 0 -2.39-.31 4.81 4.81 0 0 1 -6.43 1.49 6.52 6.52 0 0 1 -2.61-3 8.68 8.68 0 0 1 -.65-2.12 6.72 6.72 0 0 1 -.11-1.1v-.36c.16-.38 0-.66-.39-.85l2.1-.87a7.46 7.46 0 0 1 .45-10.34c3.17-3 7.91-2.26 11.75-1.3a.88.88 0 0 0 .47-1.7z"/><path d="m660.7 597.14c-.64 2.77.24 6.53 2.95 8a2.85 2.85 0 0 0 3.59-.87c1.08-1.3 1-3.06 1.92-4.44l-2-.55a8.53 8.53 0 0 0 2.66 6.12 6.32 6.32 0 0 0 6 1.32c3.89-1.33 4.68-6 5-9.51h-2.52c-.11 3.06 3.18 5.09 6 4.5 3.41-.71 4.9-4.53 4.86-7.66a1.33 1.33 0 0 0 -2.65 0c0 1.81-.53 4.22-2.41 5-1.3.52-3.3-.28-3.28-1.82s-2.41-1.6-2.52 0c-.16 2.29-.46 5.52-2.58 6.91-3.32 2.18-6.18-1.94-6.44-4.84a1.09 1.09 0 0 0 -2-.54 9.4 9.4 0 0 0 -1 2.73c-.25 1-.78 2.53-2 1.73-1.75-1.09-2.33-3.72-2-5.6.19-1-1.35-1.48-1.59-.44z"/><path d="m692.26 724c-2.38-1-2.85-4-3.08-6.32-.11-1.14-.42-2.9 1-3.26s2.81.75 3.87 1.59a1.31 1.31 0 0 0 1.79 0 1.27 1.27 0 0 0 0-1.79c-.11-.1-.89-1-.9-1l-.1.17c-.1.14.09 0 0 0s-.19 0 0 0c-.22 0-.68-.62-.5-.25.61 1.28 2.65.37 2.26-1-.48-1.68-2.59-1.73-3.63-.54-1.29 1.47-.1 3.29 1.11 4.33l1.54-2c-1.72-1.31-3.65-2.5-5.9-2a3.82 3.82 0 0 0 -2.48 1.79 5.38 5.38 0 0 0 -.5 3.14c.3 3.48 1.08 7.58 4.65 9.08 1.15.48 2-1.52.86-2z"/></g><path d="m25.21 432.89a175.6 175.6 0 0 1 58 .06 1.1 1.1 0 0 0 1.22-1.59 15.34 15.34 0 0 1 2.57-17.36 15.14 15.14 0 0 1 17.23-2.69 1.23 1.23 0 0 0 1.66-1.67c-4.79-8.73-7.73-19.25-4.88-29.1 2.35-8.14 8.73-14.53 16.3-18 17.24-8 37.08 1.47 46.82 16.55 6 9.31 8.72 20.39 8.92 31.39h2.67c-.76-6.94 5.29-13.33 12.37-12a11.08 11.08 0 0 1 7.8 5.63c1.6 3 2.92 6.34 6.68 6.89a7.2 7.2 0 0 0 7.87-4.62c.55-1.56-1.93-2.24-2.49-.68a4.58 4.58 0 0 1 -6.85 1.84c-1.43-1.2-2-3.18-2.9-4.78a13 13 0 0 0 -3.28-4c-5.4-4.33-13.41-4.18-18.19 1a13.79 13.79 0 0 0 -3.73 10.71c.19 1.66 2.7 1.75 2.67 0-.38-20.37-9.77-41.45-29.27-50-8.76-3.86-18.77-4.73-27.82-1.31-8.36 3.17-15.59 9.46-19 17.81-4.62 11.15-1.41 23.8 4.2 33.95l1.67-1.66a17.59 17.59 0 0 0 -20.13 3.12 17.38 17.38 0 0 0 -2.73 20.1l1.22-1.59a181.33 181.33 0 0 0 -59 .53c-1 .17-.56 1.66.42 1.5z" fill="#18c4ff"/><path d="m795.11 553.63c14.54-1 29.07-2.16 43.61-3a1.09 1.09 0 0 0 .93-1.62c-2.89-6.34-.37-14.18 4.82-18.55 5.79-4.88 14-3.75 19.4 1.22a14 14 0 0 1 4.56 10.83l3.3-.45a47.75 47.75 0 0 1 9.06-34.87c3.37-4.56 8.21-9.34 14.37-8.57 5.71.7 10.51 5.38 13.07 10.28 3.56 6.84 4.36 14.71 6.48 22a1.4 1.4 0 0 0 2.74-.37 27 27 0 0 1 3.74-10.73c1.9-3.11 4.57-6.34 7.8-8.13 3.92-2.18 6.7 1.76 8.24 4.89a37.74 37.74 0 0 1 3.58 11.87 38.9 38.9 0 0 1 -.78 14.22 1.34 1.34 0 0 0 1.64 1.64c2.86-.87 5.13-2.84 7.25-4.87 1.91-1.84 3.85-4.18 6.38-5.17 2.85-1.12 5.2.74 6.58 3.14 1.64 2.85 2.42 6.18 5 8.41s6.5 3.53 9 .57c1-1.17-.7-2.89-1.7-1.7-2 2.42-5.72-.55-6.95-2.44-1.74-2.66-2.41-5.85-4.53-8.3a7.42 7.42 0 0 0 -7.6-2.39c-2.57.73-4.62 2.7-6.5 4.51-2.25 2.17-4.53 4.73-7.61 5.66l1.64 1.65a41.58 41.58 0 0 0 -3.16-28.36c-1.79-3.58-5-7.47-9.47-6.6-2.14.41-4 1.88-5.56 3.29a29.12 29.12 0 0 0 -4.41 4.93 30.29 30.29 0 0 0 -5.37 13.91l2.74-.37c-2-7.2-2.87-14.75-6-21.6-2.66-5.77-7.53-10.79-13.73-12.63a14.11 14.11 0 0 0 -9.12.28c-3.26 1.28-5.75 3.61-8.09 6.15a47.26 47.26 0 0 0 -10.28 17.75 49 49 0 0 0 -1.66 22.81c.32 1.88 3.36 1.43 3.3-.44-.12-4.26-2.38-8.29-5.23-11.38a19 19 0 0 0 -10.93-5.94c-8.27-1.25-15.56 4.27-18.28 11.89a17.22 17.22 0 0 0 .45 13l.92-1.62c-14.52 1.32-29.07 2.39-43.61 3.56-1 .08-1 1.69 0 1.62z" fill="#18c4ff"/><path d="m413.54 171.47a31.46 31.46 0 0 1 23.37-7.56c4.57.41 8.66 2.06 12.79 4 3.78 1.76 7.66 3.5 11.9 3.73 8.25.43 15.42-4.61 22.38-8.29 7.93-4.2 16.57-5.94 25.43-3.94a34.42 34.42 0 0 1 12 5.27c3.36 2.33 6.4 5.14 10 7.08a17.83 17.83 0 0 0 11.61 2c4.65-.76 9-2.83 13.4-4.42 8.55-3.09 17.64-5.84 26.84-5.29a29.46 29.46 0 0 1 13 3.81c3.66 2.12 6.83 5 10.17 7.55 5.9 4.57 12.18 7.3 19.74 7 7.17-.3 14.06-2.58 20.94-4.39 6.68-1.76 14-3.46 20.77-1.13 7.31 2.53 11.14 9.58 16 15 4.58 5.13 10.3 8.06 17.26 7.84 6.64-.2 13-2.52 19.35-4.26 5.9-1.63 12.82-3.31 18.59-.34 6.16 3.18 8.51 10.3 12.7 15.39a15 15 0 0 0 8 5.33c4.39 1 8.89-.23 13.07-1.56 3.88-1.24 7.88-2.61 12-2.13 4.36.5 6.89 3.36 7.88 7.49.84 3.53.87 7.24 2.31 10.62a11.76 11.76 0 0 0 6.71 6.36c3.51 1.42 7.34 1.64 11 2.51a25.23 25.23 0 0 1 10.59 5.42 27.9 27.9 0 0 1 7.14 9.59c.53 1.17 2.56.33 2.09-.88a27.56 27.56 0 0 0 -15.88-15.68c-6.74-2.58-17.06-1.13-19.66-9.6-2-6.64-1-15.1-9-17.87-8.51-3-16.31 3.34-24.67 3.42s-11.55-8.12-15.66-13.94c-3.75-5.31-8.82-8.62-15.44-8.75s-13.18 2.29-19.52 4.06-13.58 3.54-19.88.68c-7-3.16-10.49-10.72-15.72-15.89s-11.68-7.07-18.75-6.55-14.07 2.94-21 4.69c-7.26 1.83-15.23 3.21-22.31 0-7.57-3.46-12.88-10.38-20.54-13.71-8.09-3.52-17.12-3.07-25.56-1.17a108.47 108.47 0 0 0 -13.2 4c-4.38 1.59-8.76 3.72-13.4 4.43-9.88 1.53-16.07-7.4-24.08-11.36a37.47 37.47 0 0 0 -24.3-3.03c-8.58 1.84-15.32 7.54-23.34 10.72a20.13 20.13 0 0 1 -12.87 1.09c-4.48-1.2-8.5-3.64-12.86-5.15a32.83 32.83 0 0 0 -23.1.8 32.32 32.32 0 0 0 -9.39 5.93c-.76.69.35 1.78 1.11 1.12z"/><path d="m413.06 171.3c13 18.61 26 37.2 38.82 56s25.38 37.67 37.76 56.71q10.47 16.11 20.76 32.36c.71 1.12 2.5.08 1.79-1.05q-18.24-28.77-37.08-57.15t-38.34-56.37c-7.34-10.5-14.71-21-22.27-31.35-.62-.85-2.06 0-1.44.85z"/><path d="m628.73 357.68q40.18-20.51 80.31-41.1c26.07-13.43 52.06-27 77.72-41.2q10.85-6 21.61-12.12c7.17-4.06 14.52-8 21.36-12.56a1.08 1.08 0 0 0 -1.08-1.86c-6.58 3.48-12.89 7.5-19.32 11.25s-12.63 7.28-19 10.83q-19.33 10.79-38.83 21.14c-26 13.82-52.22 27.19-78.37 40.72l-45.26 23.44c-1 .5-.11 1.95.86 1.46z"/><path d="m529.56 171c2.58 18.46 5 37 7.3 55.44s4.47 36.84 6.48 55.29q1.7 15.57 3.25 31.15c.13 1.3 2.18 1.31 2 0q-2.8-27.94-6.06-55.84-3.24-27.66-7-55.25-2.13-15.63-4.4-31.24c-.16-1.1-1.8-.63-1.65.45z"/><path d="m617.13 182q-5.91 25.63-11.68 51.3t-11.63 51.57l-6.49 28.95c-.3 1.33 1.74 1.9 2 .56q5.76-25.67 11.5-51.34t11.47-51.61c2.15-9.66 4.25-19.33 6.36-29 .22-1-1.33-1.45-1.57-.43z"/><path d="m610.06 336.1c5.13-4.25 10-8.82 15-13.25s10.07-9 15.1-13.47c9.11-8.15 18.23-16.29 27.25-24.54 18-16.46 35.68-33.33 52.13-51.37 9.17-10 17.94-20.44 26.2-31.24.82-1.07-1-2.13-1.81-1.06-14.67 19.46-31.21 37.42-48.53 54.54s-35.21 33.2-53.23 49.34q-8.28 7.43-16.54 14.85c-5.57 5-11.28 9.89-16.67 15.08-.74.72.35 1.75 1.11 1.12z"/><g fill="#18c4ff"><path d="m129.48 611.28a169.17 169.17 0 0 0 42.94 91.72c.82.89 2.13-.43 1.32-1.31a169.88 169.88 0 0 1 -38.1-68.84 166 166 0 0 1 -4.55-22c-.15-1.06-1.76-.61-1.61.44z"/><path d="m118 665.72a186.67 186.67 0 0 0 21.76 42.53c2.54 3.7 5.23 7.31 8 10.82.73.91 2-.38 1.28-1.28a185.29 185.29 0 0 1 -24.46-40q-2.74-6.15-5-12.49c-.36-1-1.92-.55-1.57.43z"/><path d="m808.37 617.85a74.37 74.37 0 0 1 -.81 42.65 75.73 75.73 0 0 1 -23.67 35.5c-6 5-13.26 9.47-21 11-4 .81-8.8.78-12.46-1.32-4.6-2.64.07-7.16 3-8.78 5.86-3.26 13.52-5 20.07-3a13.08 13.08 0 0 1 7.54 5.8 14.73 14.73 0 0 1 1.38 10.64c-1.71 7.95-7.19 14.39-13.13 19.63a70.14 70.14 0 0 1 -22 13.13c-1.94.72-3.91 1.34-5.9 1.89l1.48 1.92a14.61 14.61 0 0 1 8.46-6.82c3.29-1 7.26-1 10.07 1.27 3.56 2.82 1.35 7-.51 10.2a46.05 46.05 0 0 1 -7.65 9.55c-6 5.9-13.09 10.8-20.15 15.37a196.46 196.46 0 0 1 -22.88 12.71 204.82 204.82 0 0 1 -27.8 10.72 1.19 1.19 0 0 0 .63 2.3 194.73 194.73 0 0 0 52.11-23.94c7.65-5 15.39-10.37 21.68-17a44.1 44.1 0 0 0 7.69-10.84c1-2.06 1.81-4.27 1.39-6.59a7.39 7.39 0 0 0 -2.64-4.31c-7.21-6-18.54-1.31-22.66 6.1a1.32 1.32 0 0 0 1.48 1.92 73 73 0 0 0 24.91-12.41c6.94-5.3 13.35-11.78 16.6-20 2.94-7.48 2.27-16.36-4.7-21.33-6-4.3-14.49-3.67-21.16-1.36-3.72 1.28-7.66 3.08-10.09 6.31a6.44 6.44 0 0 0 -1.42 5.38 6.53 6.53 0 0 0 4 4.11c8.64 3.81 18.54.24 26.17-4.27 13.5-8 24-20.62 30.15-35a76.49 76.49 0 0 0 4.94-45.81c-.42-1.94-1-3.84-1.56-5.73a.8.8 0 0 0 -1.54.42z"/></g></svg>